<?xml version="1.0" encoding="iso-8859-1"?>
<!-- Generator: Adobe Illustrator 16.0.0, SVG Export Plug-In . SVG Version: 6.00 Build 0)  -->
<!DOCTYPE svg PUBLIC "-//W3C//DTD SVG 1.1//EN" "http://www.w3.org/Graphics/SVG/1.1/DTD/svg11.dtd">
<svg xmlns="http://www.w3.org/2000/svg" xmlns:xlink="http://www.w3.org/1999/xlink" version="1.1" id="Capa_1" x="0px" y="0px" width="512px" height="512px" viewBox="0 0 510 510" style="enable-background:new 0 0 510 510;" xml:space="preserve">
<g>
	<g id="favorite">
		<path d="M 256 448 l -30.164 -27.211 C 118.718 322.442 48 258.61 48 179.095 C 48 114.221 97.918 64 162.4 64 c 36.399 0 70.717 16.742 93.6 43.947 C 278.882 80.742 313.199 64 349.6 64 C 414.082 64 464 114.221 464 179.095 c 0 79.516 -70.719 143.348 -177.836 241.694 L 256 448 Z'" />
	</g>
</g>
<g id="instagram">
	<path d="M336 96c21.2 0 41.3 8.4 56.5 23.5S416 154.8 416 176v160c0 21.2-8.4 41.3-23.5 56.5S357.2 416 336 416H176c-21.2 0-41.3-8.4-56.5-23.5S96 357.2 96 336V176c0-21.2 8.4-41.3 23.5-56.5S154.8 96 176 96h160m0-32H176c-61.6 0-112 50.4-112 112v160c0 61.6 50.4 112 112 112h160c61.6 0 112-50.4 112-112V176c0-61.6-50.4-112-112-112z" />
	<path d="M360 176c-13.3 0-24-10.7-24-24s10.7-24 24-24c13.2 0 24 10.7 24 24s-10.8 24-24 24zM256 192c35.3 0 64 28.7 64 64s-28.7 64-64 64-64-28.7-64-64 28.7-64 64-64m0-32c-53 0-96 43-96 96s43 96 96 96 96-43 96-96-43-96-96-96z" />
</g>
<g id="facebook">
	<path d="M426.8 64H85.2C73.5 64 64 73.5 64 85.2v341.6c0 11.7 9.5 21.2 21.2 21.2H256V296h-45.9v-56H256v-41.4c0-49.6 34.4-76.6 78.7-76.6 21.2 0 44 1.6 49.3 2.3v51.8h-35.3c-24.1 0-28.7 11.4-28.7 28.2V240h57.4l-7.5 56H320v152h106.8c11.7 0 21.2-9.5 21.2-21.2V85.2c0-11.7-9.5-21.2-21.2-21.2z" />
</g>
<g id="youtube">
	<path d="M508.6 148.8c0-45-33.1-81.2-74-81.2C379.2 65 322.7 64 265 64h-18c-57.6 0-114.2 1-169.6 3.6C36.6 67.6 3.5 104 3.5 149 1 184.6-.1 220.2 0 255.8c-.1 35.6 1 71.2 3.4 106.9 0 45 33.1 81.5 73.9 81.5 58.2 2.7 117.9 3.9 178.6 3.8 60.8.2 120.3-1 178.6-3.8 40.9 0 74-36.5 74-81.5 2.4-35.7 3.5-71.3 3.4-107 .2-35.6-.9-71.2-3.3-106.9zM207 353.9V157.4l145 98.2-145 98.3z">
</g>
<g>
</g>
<g>
</g>
<g>
</g>
<g>
</g>
<g>
</g>
<g>
</g>
<g>
</g>
<g>
</g>
<g>
</g>
<g>
</g>
<g>
</g>
<g>
</g>
</svg>
